<svg width="1536" height="1536" viewBox="0 0 1536 1536" fill="none" xmlns="http://www.w3.org/2000/svg">
<line x1="0.994751" y1="1536" x2="0.994751" y2="0.999756" stroke="#1F2025"/>
<line x1="218.474" y1="1536" x2="218.474" y2="0.997314" stroke="#1F2025"/>
<line x1="443" y1="1536.01" x2="443" y2="0.992065" stroke="#1F2025"/>
<line x1="877" y1="1536" x2="877" y2="0.999756" stroke="#1F2025"/>
<line x1="1095.99" y1="1536" x2="1095.99" y2="0.999756" stroke="#1F2025"/>
<line x1="1316.5" y1="1" x2="1316.5" y2="1536" stroke="#1F2025"/>
<line x1="1535.5" y1="1" x2="1535.5" y2="1536" stroke="#1F2025"/>
<line x1="2" y1="0.5" x2="1535" y2="0.5" stroke="#1F2025"/>
<line x1="1.99988" y1="220" x2="1535" y2="220" stroke="#1F2025"/>
<line x1="1.99854" y1="659" x2="1535" y2="659" stroke="#1F2025"/>
<line x1="1.99744" y1="878" x2="1535" y2="878" stroke="#1F2025"/>
<line x1="2" y1="1097" x2="1535.01" y2="1097" stroke="#1F2025"/>
<line x1="1" y1="1316" x2="1534.01" y2="1316" stroke="#1F2025"/>
<line x1="1" y1="1535.5" x2="1534.01" y2="1535.5" stroke="#1F2025"/>
<line x1="1.99988" y1="438" x2="1535" y2="438" stroke="#1F2025"/>
<line x1="659.5" y1="1" x2="659.5" y2="1536" stroke="#1F2025"/>
</svg>
